<?xml version="1.0" encoding="iso-8859-1"?>
<!-- Uploaded to: SVG Repo, www.svgrepo.com, Generator: SVG Repo Mixer Tools -->
<!DOCTYPE svg PUBLIC "-//W3C//DTD SVG 1.1//EN" "http://www.w3.org/Graphics/SVG/1.1/DTD/svg11.dtd">
<svg fill="#ffffff" height="800px" width="800px" version="1.1" id="Capa_1" xmlns="http://www.w3.org/2000/svg" xmlns:xlink="http://www.w3.org/1999/xlink" 
	 viewBox="0 0 201.428 201.428" xml:space="preserve">
<path d="M38.487,159.702l7.962-22.933l8.982,22.933H38.487z M95,109.839v85c0,2.761-2.238,5-5,5H5c-2.762,0-5-2.239-5-5v-85
	c0-2.761,2.238-5,5-5h85C92.762,104.839,95,107.078,95,109.839z M74.322,180.516l-23.5-60c-0.763-1.95-2.642-3.194-4.753-3.176
	c-2.093,0.041-3.939,1.381-4.626,3.359l-20.833,60c-0.905,2.609,0.475,5.458,3.084,6.363c0.543,0.189,1.096,0.278,1.64,0.278
	c2.07,0,4.006-1.296,4.724-3.361l4.957-14.277h24.333l5.664,14.46c1.007,2.572,3.908,3.838,6.479,2.833
	C74.062,185.987,75.33,183.086,74.322,180.516z M145.881,6.589v85c0,2.761-2.238,5-5,5h-85c-2.762,0-5-2.239-5-5v-85
	c0-2.761,2.238-5,5-5h85C143.643,1.589,145.881,3.828,145.881,6.589z M120.881,30.405c0-9.374-7.626-17-17-17h-11
	c-9.374,0-17,7.626-17,17v37.667c0,9.374,7.626,17,17,17h11.12c9.308,0,16.88-7.572,16.88-16.88v-0.12c0-2.761-2.238-5-5-5
	s-5,2.239-5,5v0.12c0,3.793-3.086,6.88-6.88,6.88h-11.12c-3.859,0-7-3.14-7-7V30.405c0-3.86,3.141-7,7-7h11c3.859,0,7,3.14,7,7
	v2.667c0,2.761,2.238,5,5,5s5-2.239,5-5V30.405z M157.645,141.967v-6.684c0-3.435-2.98-6.229-6.644-6.229h-10.689
	c-0.032,5.969-0.063,12.624-0.086,19.142h10.775C154.664,148.197,157.645,145.402,157.645,141.967z M161.024,158.197h-20.827
	c-0.017,7.881-0.015,14.835,0.017,19.142h20.811c3.663,0,6.644-2.794,6.644-6.229v-6.684
	C167.668,160.991,164.688,158.197,161.024,158.197z M201.428,109.839v85c0,2.761-2.238,5-5,5h-85c-2.762,0-5-2.239-5-5v-85
	c0-2.761,2.238-5,5-5h85C199.189,104.839,201.428,107.078,201.428,109.839z M177.668,164.426c0-7.25-4.9-13.405-11.642-15.48
	c1.037-2.115,1.618-4.481,1.618-6.978v-6.684c0-8.949-7.466-16.229-16.644-16.229H135.34c-2.75,0-4.983,2.22-5,4.97
	c-0.354,59.036-0.237,59.237,0.667,60.808c0.892,1.55,2.544,2.506,4.333,2.506h25.685c9.178,0,16.644-7.281,16.644-16.229V164.426z"
	/>
</svg>